<?xml version="1.0" encoding="UTF-8"?>
<!DOCTYPE svg PUBLIC "-//W3C//DTD SVG 1.1//EN" "http://www.w3.org/Graphics/SVG/1.1/DTD/svg11.dtd">
<!-- Creator: CorelDRAW 2019 (64-Bit Versión de evaluación) -->
<svg xmlns="http://www.w3.org/2000/svg" xml:space="preserve" width="100%" height="100%" version="1.1" style="shape-rendering:geometricPrecision; text-rendering:geometricPrecision; image-rendering:optimizeQuality; fill-rule:evenodd; clip-rule:evenodd"
viewBox="0 0 12417.17 3002.4"
 xmlns:xlink="http://www.w3.org/1999/xlink"
 xmlns:xodm="http://www.corel.com/coreldraw/odm/2003">
 <defs>
  <style type="text/css">
   <![CDATA[
    .fil0 {fill:#F58634;fill-rule:nonzero}
   ]]>
  </style>
 </defs>
 <g id="Capa_x0020_1">
  <metadata id="CorelCorpID_0Corel-Layer"/>
  <polygon class="fil0" points="12417.17,2678.2 12008.84,2678.2 11469.93,1859.46 11469.93,2678.2 11061.6,2678.2 11061.6,1212.76 11469.93,1212.76 12008.84,2041.86 12008.84,1212.76 12417.17,1212.76 "/>
  <path class="fil0" d="M7768.65 2186.96l0 491.24 -408.33 0 0 -1467.51 609.39 0c176.87,0 311.94,44.57 405.22,133.69 93.28,89.13 139.91,208.31 139.91,357.55 0,92.59 -20.8,175.57 -62.18,248.73 -41.37,73.17 -103.38,131 -185.5,173.07 -82.15,42.08 -181.52,63.23 -297.45,63.23l-201.06 0zm155.46 -321.29c118.83,0 178.25,-54.57 178.25,-163.74 0,-107.77 -59.57,-161.68 -178.25,-161.68l-155.46 0 0 325.42 155.46 0z"/>
  <path class="fil0" d="M6753.01 2678.2l-296.4 -540.99 -41.47 0 0 540.99 -408.32 0 0 -1467.51 644.62 0c117.45,0 217.31,20.38 299.52,61.14 82.2,40.76 144.13,97.15 185.5,168.93 41.38,71.79 62.19,152.69 62.19,242.52 0,102.26 -28.33,191.05 -84.98,266.35 -56.65,75.31 -138.19,128.16 -244.58,158.56l333.7 570.01 -449.78 0zm-337.87 -814.59l201.06 0c113.31,0 169.97,-51.13 169.97,-153.39 0,-48.37 -14.24,-86.44 -42.49,-114 -28.26,-27.56 -70.97,-41.45 -127.48,-41.45l-201.06 0 0 308.84z"/>
  <path class="fil0" d="M5140.41 1187.89c138.18,0 264.35,32.21 378.28,96.38 113.92,64.19 203.89,153.82 269.45,268.42 65.56,114.63 98.46,243.9 98.46,387.61 0,143.7 -33.16,272.9 -99.49,387.6 -66.34,114.7 -156.5,204.18 -270.49,268.43 -114,64.25 -239.41,96.37 -376.21,96.37 -136.81,0 -262.63,-32.19 -377.24,-96.37 -114.61,-64.18 -205.28,-153.8 -271.54,-268.43 -66.24,-114.62 -99.49,-243.9 -99.49,-387.6 0,-143.71 33.18,-272.92 99.49,-387.61 66.32,-114.68 156.93,-204.23 271.54,-268.42 114.61,-64.17 240.43,-96.38 377.24,-96.38zm0 377.24c-103.64,0 -185.17,33.51 -244.58,100.52 -59.42,67.02 -89.14,158.58 -89.14,274.65 0,113.31 29.8,203.89 89.14,271.54 59.34,67.63 140.94,101.56 244.58,101.56 102.24,0 183.16,-33.93 242.5,-101.56 59.36,-67.65 89.15,-158.23 89.15,-271.54 0,-116.07 -29.46,-207.7 -88.1,-274.65 -58.65,-66.94 -139.92,-100.52 -243.55,-100.52z"/>
  <polygon class="fil0" points="4443.97,1210.69 4443.97,1536.12 4048.08,1536.12 4048.08,2678.2 3641.81,2678.2 3641.81,1536.12 3250.08,1536.12 3250.08,1210.69 "/>
  <path class="fil0" d="M2576.42 1187.89c138.18,0 264.35,32.21 378.28,96.38 113.92,64.19 203.89,153.82 269.45,268.42 65.56,114.63 98.47,243.9 98.47,387.61 0,143.7 -33.17,272.9 -99.5,387.6 -66.33,114.7 -156.5,204.18 -270.49,268.43 -114,64.25 -239.4,96.37 -376.21,96.37 -136.8,0 -262.62,-32.19 -377.23,-96.37 -114.62,-64.18 -205.28,-153.8 -271.55,-268.43 -66.24,-114.62 -99.49,-243.9 -99.49,-387.6 0,-143.71 33.18,-272.92 99.49,-387.61 66.33,-114.68 156.93,-204.23 271.55,-268.42 114.61,-64.17 240.43,-96.38 377.23,-96.38zm0 377.24c-103.64,0 -185.16,33.51 -244.58,100.52 -59.42,67.02 -89.14,158.58 -89.14,274.65 0,113.31 29.8,203.89 89.14,271.54 59.34,67.63 140.94,101.56 244.58,101.56 102.25,0 183.17,-33.93 242.5,-101.56 59.36,-67.65 89.15,-158.23 89.15,-271.54 0,-116.07 -29.45,-207.7 -88.1,-274.65 -58.65,-66.94 -139.92,-100.52 -243.55,-100.52z"/>
  <polygon class="fil0" points="10679.02,1311.4 10917.38,2678.27 10474.37,2678.27 10344.08,1919.56 "/>
  <polygon class="fil0" points="9586.8,3002.4 9106.77,3002.4 9282.8,2678.2 8633,2678.2 8633,1210.69 9041.33,1210.69 9041.33,2369.37 9450.49,2369.37 10258.57,881.12 9913.66,881.12 11047.75,0 11047.75,881.12 10739.59,881.12 "/>
  <polygon class="fil0" points="1705.87,1216.92 1705.87,2678.2 1301.69,2678.2 1301.69,1849.11 1030.15,2678.2 679.86,2678.2 408.33,1849.11 408.33,2678.2 -0,2678.2 -0,1216.92 499.54,1216.92 860.19,2166.23 1210.48,1216.92 "/>
 </g>
</svg>
